<svg xmlns="http://www.w3.org/2000/svg" viewBox="0 0 96 120" x="0px" y="0px"><title>Artboard 10</title><g><path d="M96,18a8,8,0,0,1-8,8H8A8,8,0,0,1,8,10H88A8,8,0,0,1,96,18ZM88,40H8A8,8,0,0,0,8,56H88a8,8,0,0,0,0-16Zm0,30H8A8,8,0,0,0,8,86H88a8,8,0,0,0,0-16Z"/></g><text x="0" y="111" fill="#000000" font-size="5px" font-weight="bold" font-family="'Helvetica Neue', Helvetica, Arial-Unicode, Arial, Sans-serif">Created by olcay kurtulus</text><text x="0" y="116" fill="#000000" font-size="5px" font-weight="bold" font-family="'Helvetica Neue', Helvetica, Arial-Unicode, Arial, Sans-serif">from the Noun Project</text></svg>